<?xml version='1.0' encoding='utf-8'?>
<svg xmlns="http://www.w3.org/2000/svg" version="1.1" id="Layer_1" x="0px" y="0px" viewBox="-192 0 154.7 288" style="enable-background:new -192 0 154.7 288;"> <style type="text/css"> .st0{fill:#E2E0E0;} .st1{fill:#0687AA;} .st2{fill:#773393;} .st3{fill:#F8981F;} </style> <g> <path class="st0" d="M-132.7,212.3c0,4.8,22,14.6,22,19.7v5.4c0-5.1-22-14.6-22-19.4V212.3z"/> <path class="st0" d="M-132.7,202c0,4.8,22,14.6,22,19.7v5.5c0-5.1-22-14.6-22-19.4V202z"/> <path class="st0" d="M-132.7,175.3c0,4.8,22,14.6,22,19.7v5.4c0-5.1-22-14.6-22-19.4V175.3z"/> <path class="st0" d="M-132.7,165c0,4.8,22,14.6,22,19.7v5.5c0-5.1-22-14.6-22-19.4V165z"/> <path class="st0" d="M-132.7,137.6c0,4.8,22,14.6,22,19.7v5.5c0-5.1-22-14.6-22-19.4V137.6z"/> <path class="st0" d="M-132.7,127.4c0,4.8,22,14.6,22,19.7v5.5c0-5.1-22-14.6-22-19.4V127.4z"/> <path class="st0" d="M-132.7,99.3c0,4.8,22,14.6,22,19.7v5.4c0-5.1-22-14.6-22-19.4V99.3z"/> <path class="st0" d="M-132.7,89c0,4.8,22,14.6,22,19.7v5.5c0-5.1-22-14.6-22-19.4V89z"/> <path class="st0" d="M-132.7,62.3c0,4.8,22,14.6,22,19.7v5.4c0-5.1-22-14.6-22-19.4V62.3z"/> <path class="st0" d="M-132.7,52c0,4.8,22,14.6,22,19.7v5.5c0-5.1-22-14.6-22-19.4C-132.7,57.8-132.7,52-132.7,52z"/> <path class="st0" d="M-132.7,24.6c0,4.8,22,14.6,22,19.7v5.5c0-5.1-22-14.6-22-19.4C-132.7,30.4-132.7,24.6-132.7,24.6z"/> <path class="st0" d="M-132.7,14.4c0,4.8,22,14.6,22,19.7v5.5c0-5.1-22-14.6-22-19.4C-132.7,20.2-132.7,14.4-132.7,14.4z"/> <path class="st1" d="M-132.7,246.4c0-4.8,22-14.6,22-19.7v-5.5c0,5.1-22,14.6-22,19.4V246.4z"/> <path class="st1" d="M-132.7,256.6c0-4.8,22-14.6,22-19.7v-5.5c0,5.1-22,14.6-22,19.4V256.6z"/> <path class="st1" d="M-132.7,209.4c0-4.8,22-14.6,22-19.7v-5.5c0,5.1-22,14.6-22,19.4V209.4z"/> <path class="st1" d="M-132.7,219.6c0-4.8,22-14.6,22-19.7v-5.5c0,5.1-22,14.6-22,19.4V219.6z"/> <path class="st1" d="M-132.7,171.8c0-4.8,22-14.6,22-19.7v-5.5c0,5.1-22,14.6-22,19.4V171.8z"/> <path class="st1" d="M-132.7,182c0-4.8,22-14.6,22-19.7v-5.5c0,5.1-22,14.6-22,19.4V182z"/> <path class="st1" d="M-132.7,133.4c0-4.8,22-14.6,22-19.7v-5.5c0,5.1-22,14.6-22,19.4C-132.7,127.6-132.7,133.4-132.7,133.4z"/> <path class="st1" d="M-132.7,143.6c0-4.8,22-14.6,22-19.7v-5.5c0,5.1-22,14.6-22,19.4V143.6z"/> <path class="st1" d="M-132.7,96.4c0-4.8,22-14.6,22-19.7v-5.5c0,5.1-22,14.6-22,19.4C-132.7,90.6-132.7,96.4-132.7,96.4z"/> <path class="st1" d="M-132.7,106.6c0-4.8,22-14.6,22-19.7v-5.5c0,5.1-22,14.6-22,19.4V106.6z"/> <path class="st1" d="M-132.7,58.7c0-4.8,22-14.6,22-19.7v-5.4c0,5.1-22,14.6-22,19.4V58.7z"/> <path class="st1" d="M-132.7,69c0-4.8,22-14.6,22-19.7v-5.5c0,5.1-22,14.6-22,19.4V69z"/> <path class="st0" d="M-84.7,212.3c0,4.8,22,14.6,22,19.7v5.4c0-5.1-22-14.6-22-19.4V212.3z"/> <path class="st0" d="M-84.7,202c0,4.8,22,14.6,22,19.7v5.5c0-5.1-22-14.6-22-19.4V202z"/> <path class="st0" d="M-84.7,175.3c0,4.8,22,14.6,22,19.7v5.4c0-5.1-22-14.6-22-19.4V175.3z"/> <path class="st0" d="M-84.7,165c0,4.8,22,14.6,22,19.7v5.5c0-5.1-22-14.6-22-19.4V165z"/> <path class="st0" d="M-84.7,137.6c0,4.8,22,14.6,22,19.7v5.5c0-5.1-22-14.6-22-19.4V137.6z"/> <path class="st0" d="M-84.7,127.4c0,4.8,22,14.6,22,19.7v5.5c0-5.1-22-14.6-22-19.4V127.4z"/> <path class="st0" d="M-84.7,99.3c0,4.8,22,14.6,22,19.7v5.4c0-5.1-22-14.6-22-19.4V99.3z"/> <path class="st0" d="M-84.7,89c0,4.8,22,14.6,22,19.7v5.5c0-5.1-22-14.6-22-19.4V89z"/> <path class="st0" d="M-84.7,62.3c0,4.8,22,14.6,22,19.7v5.4c0-5.1-22-14.6-22-19.4V62.3z"/> <path class="st0" d="M-84.7,52c0,4.8,22,14.6,22,19.7v5.5c0-5.1-22-14.6-22-19.4C-84.7,57.8-84.7,52-84.7,52z"/> <path class="st0" d="M-84.7,24.6c0,4.8,22,14.6,22,19.7v5.5c0-5.1-22-14.6-22-19.4C-84.7,30.4-84.7,24.6-84.7,24.6z"/> <path class="st0" d="M-84.7,14.4c0,4.8,22,14.6,22,19.7v5.5c0-5.1-22-14.6-22-19.4C-84.7,20.2-84.7,14.4-84.7,14.4z"/> <path class="st2" d="M-84.7,246.4c0-4.8,22-14.6,22-19.7v-5.5c0,5.1-22,14.6-22,19.4V246.4z"/> <path class="st2" d="M-84.7,256.6c0-4.8,22-14.6,22-19.7v-5.5c0,5.1-22,14.6-22,19.4V256.6z"/> <path class="st2" d="M-84.7,209.4c0-4.8,22-14.6,22-19.7v-5.5c0,5.1-22,14.6-22,19.4V209.4z"/> <path class="st2" d="M-84.7,219.6c0-4.8,22-14.6,22-19.7v-5.5c0,5.1-22,14.6-22,19.4V219.6z"/> <path class="st2" d="M-84.7,171.8c0-4.8,22-14.6,22-19.7v-5.5c0,5.1-22,14.6-22,19.4V171.8z"/> <path class="st2" d="M-84.7,182c0-4.8,22-14.6,22-19.7v-5.5c0,5.1-22,14.6-22,19.4V182z"/> <path class="st2" d="M-84.7,133.4c0-4.8,22-14.6,22-19.7v-5.5c0,5.1-22,14.6-22,19.4C-84.7,127.6-84.7,133.4-84.7,133.4z"/> <path class="st2" d="M-84.7,143.6c0-4.8,22-14.6,22-19.7v-5.5c0,5.1-22,14.6-22,19.4V143.6z"/> <path class="st2" d="M-84.7,96.4c0-4.8,22-14.6,22-19.7v-5.5c0,5.1-22,14.6-22,19.4C-84.7,90.6-84.7,96.4-84.7,96.4z"/> <path class="st2" d="M-84.7,106.6c0-4.8,22-14.6,22-19.7v-5.5c0,5.1-22,14.6-22,19.4V106.6z"/> <path class="st2" d="M-84.7,58.7c0-4.8,22-14.6,22-19.7v-5.4c0,5.1-22,14.6-22,19.4V58.7z"/> <path class="st2" d="M-84.7,69c0-4.8,22-14.6,22-19.7v-5.5c0,5.1-22,14.6-22,19.4V69z"/> <path class="st0" d="M-176.7,212.3c0,4.8,22,14.6,22,19.7v5.4c0-5.1-22-14.6-22-19.4V212.3z"/> <path class="st0" d="M-176.7,202c0,4.8,22,14.6,22,19.7v5.5c0-5.1-22-14.6-22-19.4V202z"/> <path class="st0" d="M-176.7,175.3c0,4.8,22,14.6,22,19.7v5.4c0-5.1-22-14.6-22-19.4V175.3z"/> <path class="st0" d="M-176.7,165c0,4.8,22,14.6,22,19.7v5.5c0-5.1-22-14.6-22-19.4V165z"/> <path class="st0" d="M-176.7,137.6c0,4.8,22,14.6,22,19.7v5.5c0-5.1-22-14.6-22-19.4V137.6z"/> <path class="st0" d="M-176.7,127.4c0,4.8,22,14.6,22,19.7v5.5c0-5.1-22-14.6-22-19.4V127.4z"/> <path class="st0" d="M-176.7,99.3c0,4.8,22,14.6,22,19.7v5.4c0-5.1-22-14.6-22-19.4V99.3z"/> <path class="st0" d="M-176.7,89c0,4.8,22,14.6,22,19.7v5.5c0-5.1-22-14.6-22-19.4V89z"/> <path class="st0" d="M-176.7,62.3c0,4.8,22,14.6,22,19.7v5.4c0-5.1-22-14.6-22-19.4V62.3z"/> <path class="st0" d="M-176.7,52c0,4.8,22,14.6,22,19.7v5.5c0-5.1-22-14.6-22-19.4C-176.7,57.8-176.7,52-176.7,52z"/> <path class="st0" d="M-176.7,24.6c0,4.8,22,14.6,22,19.7v5.5c0-5.1-22-14.6-22-19.4C-176.7,30.4-176.7,24.6-176.7,24.6z"/> <path class="st0" d="M-176.7,14.4c0,4.8,22,14.6,22,19.7v5.5c0-5.1-22-14.6-22-19.4C-176.7,20.2-176.7,14.4-176.7,14.4z"/> <path class="st3" d="M-176.7,246.4c0-4.8,22-14.6,22-19.7v-5.5c0,5.1-22,14.6-22,19.4V246.4z"/> <path class="st3" d="M-176.7,256.6c0-4.8,22-14.6,22-19.7v-5.5c0,5.1-22,14.6-22,19.4V256.6z"/> <path class="st3" d="M-176.7,209.4c0-4.8,22-14.6,22-19.7v-5.5c0,5.1-22,14.6-22,19.4V209.4z"/> <path class="st3" d="M-176.7,219.6c0-4.8,22-14.6,22-19.7v-5.5c0,5.1-22,14.6-22,19.4V219.6z"/> <path class="st3" d="M-176.7,171.8c0-4.8,22-14.6,22-19.7v-5.5c0,5.1-22,14.6-22,19.4V171.8z"/> <path class="st3" d="M-176.7,182c0-4.8,22-14.6,22-19.7v-5.5c0,5.1-22,14.6-22,19.4V182z"/> <path class="st3" d="M-176.7,133.4c0-4.8,22-14.6,22-19.7v-5.5c0,5.1-22,14.6-22,19.4C-176.7,127.6-176.7,133.4-176.7,133.4z"/> <path class="st3" d="M-176.7,143.6c0-4.8,22-14.6,22-19.7v-5.5c0,5.1-22,14.6-22,19.4V143.6z"/> <path class="st3" d="M-176.7,96.4c0-4.8,22-14.6,22-19.7v-5.5c0,5.1-22,14.6-22,19.4C-176.7,90.6-176.7,96.4-176.7,96.4z"/> <path class="st3" d="M-176.7,106.6c0-4.8,22-14.6,22-19.7v-5.5c0,5.1-22,14.6-22,19.4V106.6z"/> <path class="st3" d="M-176.7,58.7c0-4.8,22-14.6,22-19.7v-5.4c0,5.1-22,14.6-22,19.4V58.7z"/> <path class="st3" d="M-176.7,69c0-4.8,22-14.6,22-19.7v-5.5c0,5.1-22,14.6-22,19.4V69z"/> </g> </svg>